<?xml version="1.0" encoding="utf-8"?>
<!DOCTYPE svg PUBLIC "-//W3C//DTD SVG 1.1//EN" "http://www.w3.org/Graphics/SVG/1.1/DTD/svg11.dtd">
<svg version="1.1" id="Layer_1" xmlns:svg="http://www.w3.org/2000/svg"
	 xmlns="http://www.w3.org/2000/svg" xmlns:xlink="http://www.w3.org/1999/xlink" x="0px" y="0px" width="512px" height="512px"
	 viewBox="0 0 512 512" enable-background="new 0 0 512 512" xml:space="preserve">
<g>
	<linearGradient id="SVGID_1_" gradientUnits="userSpaceOnUse" x1="56.75" y1="713.2236" x2="87.85" y2="713.2236" gradientTransform="matrix(3.6 0 0 -2.9 -15.8996 2166.8496)">
		<stop  offset="0" style="stop-color:#0000A9"/>
		<stop  offset="0.6" style="stop-color:#0000A9"/>
		<stop  offset="1" style="stop-color:#000089"/>
	</linearGradient>
	<linearGradient id="SVGID_2_" gradientUnits="userSpaceOnUse" x1="56.75" y1="659.4307" x2="87.8608" y2="659.4307" gradientTransform="matrix(3.6 0 0 -2.9 -15.8996 2166.8496)">
		<stop  offset="0" style="stop-color:#0000A9"/>
		<stop  offset="0.6" style="stop-color:#0000A9"/>
		<stop  offset="1" style="stop-color:#000089"/>
	</linearGradient>

		<linearGradient id="SVGID_3_" gradientUnits="userSpaceOnUse" x1="56.75" y1="671.6719" x2="87.8608" y2="671.6719" gradientTransform="matrix(3.6 0 0 -2.9 -15.8996 2166.8496)">
		<stop  offset="0" style="stop-color:#0000A9"/>
		<stop  offset="0.6" style="stop-color:#0000A9"/>
		<stop  offset="1" style="stop-color:#000089"/>
	</linearGradient>

		<linearGradient id="SVGID_4_" gradientUnits="userSpaceOnUse" x1="56.75" y1="719.6035" x2="87.85" y2="719.6035" gradientTransform="matrix(3.6 0 0 -2.9 -15.8996 2166.8496)">
		<stop  offset="0" style="stop-color:#0000A9"/>
		<stop  offset="0.6" style="stop-color:#0000A9"/>
		<stop  offset="1" style="stop-color:#000089"/>
	</linearGradient>
		<linearGradient id="SVGID_5_" gradientUnits="userSpaceOnUse" x1="92.25" y1="130.3613" x2="123.75" y2="130.3613" gradientTransform="matrix(3.6 0 0 -2.9 -15.8996 596.049)">
		<stop  offset="0" style="stop-color:#0000A9"/>
		<stop  offset="0.6" style="stop-color:#0000A9"/>
		<stop  offset="1" style="stop-color:#000089"/>
	</linearGradient>
		<linearGradient id="SVGID_6_" gradientUnits="userSpaceOnUse" x1="92.25" y1="178.2925" x2="123.45" y2="178.2925" gradientTransform="matrix(3.6 0 0 -2.9 -15.8996 596.049)">
		<stop  offset="0" style="stop-color:#0000A9"/>
		<stop  offset="0.6" style="stop-color:#0000A9"/>
		<stop  offset="1" style="stop-color:#000089"/>
	</linearGradient>
	<path fill="url(#SVGID_1_)" d="M186,67v41l57,22l54-22V67H186z"/>
	<path fill="url(#SVGID_2_)" d="M186,118v246l56,29l56-29V116l-55,24L186,118z"/>
	<path fill="url(#SVGID_3_)" d="M56,84v246l56,26l56-29V82l-55,20L56,84z"/>
	<path fill="url(#SVGID_4_)" d="M56,67v7l55,19l56-19v-7H56z"/>
	<path fill="url(#SVGID_5_)" d="M313,83v246l56,26l56-29V81l-55,20L313,83z"/>
	<path fill="url(#SVGID_6_)" d="M314,66v7l55,19l56-19v-7H314z"/>
</g>
</svg>
